<svg width="23" height="28" viewBox="0 0 23 28" fill="none" xmlns="http://www.w3.org/2000/svg">
<path d="M11.4999 14.0001C12.2333 14.0001 12.8613 13.7387 13.3839 13.2161C13.9066 12.6934 14.1675 12.0659 14.1666 11.3334C14.1666 10.6001 13.9053 9.97208 13.3826 9.44942C12.8599 8.92675 12.2324 8.66586 11.4999 8.66675C10.7666 8.66675 10.1386 8.92808 9.61592 9.45075C9.09325 9.97342 8.83236 10.601 8.83325 11.3334C8.83325 12.0667 9.09459 12.6947 9.61725 13.2174C10.1399 13.7401 10.7675 14.001 11.4999 14.0001ZM11.4999 23.8001C14.211 21.3112 16.2221 19.0499 17.5333 17.0161C18.8444 14.9823 19.4999 13.177 19.4999 11.6001C19.4999 9.17786 18.7275 7.19475 17.1826 5.65075C15.6377 4.10675 13.7435 3.3343 11.4999 3.33341C9.25547 3.33341 7.36081 4.10586 5.81592 5.65075C4.27103 7.19564 3.49903 9.17875 3.49992 11.6001C3.49992 13.1779 4.15547 14.9836 5.46658 17.0174C6.7777 19.0512 8.78881 21.3121 11.4999 23.8001ZM11.4999 27.3334C7.92214 24.289 5.25014 21.4614 3.48392 18.8507C1.7177 16.2401 0.834141 13.8232 0.833252 11.6001C0.833252 8.26675 1.9057 5.61119 4.05059 3.63341C6.19547 1.65564 8.67859 0.666748 11.4999 0.666748C14.3221 0.666748 16.8057 1.65564 18.9506 3.63341C21.0955 5.61119 22.1675 8.26675 22.1666 11.6001C22.1666 13.8223 21.283 16.2392 19.5159 18.8507C17.7488 21.4623 15.0768 24.2899 11.4999 27.3334Z" fill="#005C97"/>
</svg>
