<svg width="18" height="19" viewBox="0 0 18 19" fill="none" xmlns="http://www.w3.org/2000/svg">
<path d="M15.336 16.1308H12.671V11.8233C12.671 10.7962 12.651 9.47412 11.281 9.47412C9.892 9.47412 9.68 10.592 9.68 11.748V16.1308H7.014V7.27344H9.574V8.48H9.609C9.967 7.78494 10.837 7.04966 12.137 7.04966C14.837 7.04966 15.337 8.88322 15.337 11.2685L15.336 16.1308ZM4.004 6.06172C3.80056 6.06199 3.59906 6.02085 3.41106 5.94066C3.22307 5.86046 3.05227 5.74279 2.90846 5.59439C2.76465 5.44599 2.65065 5.26978 2.57301 5.07586C2.49537 4.88193 2.4556 4.67411 2.456 4.46431C2.4562 4.14858 2.54718 3.84 2.71744 3.57759C2.8877 3.31518 3.12959 3.11073 3.41253 2.99009C3.69547 2.86945 4.00674 2.83805 4.30698 2.89984C4.60722 2.96164 4.88296 3.11386 5.09931 3.33727C5.31566 3.56067 5.46291 3.84521 5.52245 4.15492C5.58199 4.46462 5.55113 4.78558 5.43378 5.0772C5.31644 5.36882 5.11787 5.61801 4.86319 5.79325C4.60851 5.9685 4.30917 6.06192 4.003 6.06172H4.004ZM5.34 16.1308H2.667V7.27344H5.34V16.1308ZM16.67 0.3125H1.33C0.594 0.3125 0 0.910625 0 1.65003V17.5375C0 18.2769 0.594 18.875 1.328 18.875H16.667C17.4 18.875 18 18.2769 18 17.5375V1.65003C18 0.911656 17.4 0.3125 16.666 0.3125H16.67Z" fill="#FAFAFA"/>
</svg>
