<svg width="17" height="20" viewBox="0 0 17 20" fill="none" xmlns="http://www.w3.org/2000/svg">
<path d="M8.36327 10C8.92992 10 9.41518 9.804 9.81905 9.412C10.2229 9.02 10.4245 8.54933 10.4238 8C10.4238 7.45 10.2219 6.979 9.81802 6.587C9.41415 6.195 8.92923 5.99933 8.36327 6C7.79662 6 7.31136 6.196 6.9075 6.588C6.50363 6.98 6.30204 7.45067 6.30273 8C6.30273 8.55 6.50466 9.021 6.90853 9.413C7.31239 9.805 7.79731 10.0007 8.36327 10ZM8.36327 17.35C10.4582 15.4833 12.0122 13.7873 13.0253 12.262C14.0384 10.7367 14.5449 9.38267 14.5449 8.2C14.5449 6.38333 13.948 4.896 12.7543 3.738C11.5605 2.58 10.0969 2.00067 8.36327 2C6.62898 2 5.16496 2.57933 3.97122 3.738C2.77748 4.89667 2.18095 6.384 2.18164 8.2C2.18164 9.38333 2.68819 10.7377 3.70129 12.263C4.71439 13.7883 6.26838 15.484 8.36327 17.35ZM8.36327 20C5.59871 17.7167 3.53404 15.596 2.16927 13.638C0.804508 11.68 0.121781 9.86733 0.121094 8.2C0.121094 5.7 0.949776 3.70833 2.60714 2.225C4.26451 0.741667 6.18322 0 8.36327 0C10.544 0 12.4631 0.741667 14.1204 2.225C15.7778 3.70833 16.6061 5.7 16.6054 8.2C16.6054 9.86667 15.9227 11.6793 14.5573 13.638C13.1918 15.5967 11.1271 17.7173 8.36327 20Z" fill="#FAFAFA"/>
</svg>
