<svg width="22" height="18" viewBox="0 0 22 18" fill="none" xmlns="http://www.w3.org/2000/svg">
<path d="M21.2121 2.08264C20.449 2.43079 19.6397 2.6595 18.8111 2.76121C19.6842 2.222 20.3374 1.3739 20.6491 0.374894C19.8291 0.878144 18.9301 1.23083 17.9941 1.42161C17.3647 0.727147 16.5305 0.266575 15.6211 0.111497C14.7117 -0.043581 13.7781 0.115525 12.9654 0.56408C12.1527 1.01263 11.5065 1.72551 11.1272 2.59187C10.748 3.45823 10.6569 4.42954 10.8681 5.3548C9.20506 5.26899 7.57809 4.82342 6.09287 4.04703C4.60764 3.27064 3.29736 2.18079 2.24713 0.848238C1.87542 1.50664 1.68008 2.2551 1.68113 3.01696C1.68113 4.51227 2.42012 5.8333 3.54112 6.60674C2.87714 6.58514 2.22777 6.40022 1.64713 6.06739V6.11999C1.64709 7.11604 1.98116 8.08145 2.59266 8.85246C3.20415 9.62348 4.05544 10.1526 5.00212 10.3502C4.38577 10.5226 3.73942 10.548 3.11212 10.4244C3.37905 11.2818 3.89934 12.0316 4.60012 12.5688C5.30091 13.106 6.14708 13.4037 7.02013 13.4202C6.15248 14.123 5.15901 14.6424 4.09653 14.9489C3.03406 15.2554 1.92341 15.3429 0.828125 15.2063C2.73985 16.4741 4.96523 17.1472 7.23812 17.1451C14.9321 17.1451 19.1381 10.5729 19.1381 4.87321C19.1381 4.68758 19.1341 4.49989 19.1261 4.3153C19.9445 3.70517 20.6509 2.94844 21.2121 2.08264Z" fill="#FAFAFA"/>
</svg>
